<svg xmlns="http://www.w3.org/2000/svg" height="100%" viewBox="0 0 18 18" width="100%">
  <title>S PinOn 18 N</title>
  <rect id="Canvas"  opacity="0" width="100%" height="100%" /><path class="fill" d="M2.823,14l1.1895,1.1905-1.87,1.8345a.25.25,0,0,1-.35355-.002l-.003-.003-.795-.83a.25.25,0,0,1,.004-.35Z" />
  <path class="fill" d="M8.9775,16.1605,9,13.1445,13.1465,9l1.135-.0115A.72618.72618,0,0,0,14.789,7.749L12.5205,5.48,10.25,3.212a.723.723,0,0,0-1.2345.5055L9,4.854,4.8535,9,1.841,9.022a.72345.72345,0,0,0-.554,1.233l.001.001,3.2295,3.229L7.746,16.7145a.721.721,0,0,0,1.2315-.554Z" />
</svg>