<svg width="128" height="128" viewBox="0 0 128 128" fill="none" xmlns="http://www.w3.org/2000/svg">
<rect width="128" height="128" rx="16" fill="#151515"/>
<path d="M114.993 20.2426L22.2426 112.993L18 108.75L110.75 16L114.993 20.2426Z" fill="#F9BE28"/>
<path d="M26.7576 51.3536L26.904 51.5H27.1111H40.4444H40.6516L40.798 51.3536L51.0556 41.096V51V51.5H51.5556H56H56.5V51V22.1111V21.904L56.3536 21.7576L45.2424 10.6464L45.096 10.5H44.8889H31.5556H31.3484L31.202 10.6464L15.6464 26.202L15.5 26.3484V26.5556V39.8889V40.096L15.6464 40.2424L26.7576 51.3536ZM51.0556 33.0151L38.0151 46.0556H29.5404L20.9444 37.4596V28.9849L33.9849 15.9444H42.4596L51.0556 24.5404V33.0151Z" fill="#F9BE28" stroke="#F9BE28"/>
<path d="M76.0071 117.355L76.3593 117.704L76.7115 117.355L92.0361 102.149L107.361 117.355L107.713 117.704L108.065 117.355L111.424 114.022L111.782 113.667L111.424 113.312L94.9856 97L111.424 80.6883L111.782 80.3333L111.424 79.9784L108.065 76.6451L107.713 76.2956L107.361 76.6451L92.0361 91.8512L76.7115 76.6451L76.3593 76.2956L76.0071 76.6451L72.6478 79.9784L72.2901 80.3333L72.6478 80.6883L89.0867 97L72.6478 113.312L72.2901 113.667L72.6478 114.022L76.0071 117.355Z" fill="#F9BE28" stroke="#F9BE28"/>
</svg>
