<svg width="754" height="221" viewBox="0 0 754 221" fill="none" xmlns="http://www.w3.org/2000/svg">
<path d="M0 221L48.5473 0H754L705.453 221H0ZM34.1348 193.834H683.455L719.865 27.1661H70.5453L34.1348 193.834Z" fill="white"/>
<path d="M649.27 158.336L636.342 145.664V103.424H630.966V91.3917H636.726L640.822 75.1357H651.83V91.3917H663.478V103.424H651.83V140.16L657.078 145.664H666.55V158.336H649.27Z" fill="white"/>
<path d="M563.733 158.336L549.525 144.128V105.728L563.733 91.3921H597.269L611.477 105.728V144.128L597.269 158.336H563.733ZM570.645 146.432L590.357 146.304L595.989 140.672V109.056L590.357 103.424H570.645L565.013 109.056V140.672L570.645 146.432Z" fill="white"/>
<path d="M509.655 158.336V64H525.143V158.336H509.655Z" fill="white"/>
<path d="M423.77 158.336V64H476.89L491.098 78.208V111.616L476.89 125.824H439.77V158.336H423.77ZM439.77 111.744H469.338L475.098 106.112L474.97 83.712L469.338 78.08H439.77V111.744Z" fill="white"/>
<path d="M353.908 158.336L339.7 144.128V105.728L353.908 91.3921H384.628L398.836 105.728V130.56H355.188V140.032L360.82 145.664H397.684V158.336H353.908ZM355.188 118.656H383.348V109.056L377.716 103.424H360.82L355.188 109.056V118.656Z" fill="white"/>
<path d="M266.133 158.336L251.925 144.128V105.728L266.133 91.392H290.069L299.925 101.248V64H315.413V158.336H299.925V148.608L290.069 158.336H266.133ZM286.229 146.304L299.925 132.864V116.992L286.229 103.424H273.045L267.413 109.056V140.672L273.045 146.304H286.229Z" fill="white"/>
<path d="M181.733 158.336L167.525 144.128V105.728L181.733 91.3921H215.269L229.477 105.728V144.128L215.269 158.336H181.733ZM188.645 146.432L208.357 146.304L213.989 140.672V109.056L208.357 103.424H188.645L183.013 109.056V140.672L188.645 146.432Z" fill="white"/>
<path d="M102.208 158.336L88 144.128V105.728L102.208 91.3921H134.208L147.008 103.936V116.48H131.52V109.056L125.888 103.424H109.12L103.488 109.056V140.032L109.12 145.664H146.496V158.336H102.208Z" fill="white"/>
</svg>
