<svg width="819" height="119" viewBox="0 0 819 119" fill="none" xmlns="http://www.w3.org/2000/svg">
<path d="M0 99L17.1268 21H266L248.873 99H0ZM12.0423 89.412H241.113L253.958 30.588H24.8873L12.0423 89.412Z" fill="black"/>
<path d="M802.365 95.0003L790.589 83.3523V37.0163H783.549V28.0563H790.845L793.661 10.9043H801.853V28.0563H816.061V37.0163H801.853V79.3843L807.869 85.6563H819.005V95.0003H802.365Z" fill="black"/>
<path d="M731.625 95.0002L718.185 81.5602V41.4962L731.625 28.0562H763.369L776.809 41.4962V81.5602L763.369 95.0002H731.625ZM736.489 86.0402H758.505L765.545 79.0002L765.417 44.0562L758.505 37.0162H736.489L729.449 44.0562V79.0002L736.489 86.0402Z" fill="black"/>
<path d="M693.996 95.0001V0.664062H705.26V95.0001H693.996Z" fill="black"/>
<path d="M621.396 118.936V28.0562H632.66V38.6801L642.9 28.0562H667.604L680.916 41.4962V81.5602L667.604 95.0002H642.9L632.66 84.5042V118.936H621.396ZM645.844 86.0402H662.74L669.652 79.0002V44.0562L662.74 37.0162H645.844L632.66 50.4561V72.7281L645.844 86.0402Z" fill="black"/>
<path d="M558.408 95.0001L544.2 80.7921V42.3921L558.408 28.1841H596.04L610.248 42.3921V67.7361H568.136V73.6241L572.744 78.1041H609.224V95.0001H558.408ZM568.136 53.9121H588.488V45.9761L583.88 41.4961H572.744L568.136 45.9761V53.9121Z" fill="black"/>
<path d="M478.308 95.0001L464.1 80.7921V42.3921L478.308 28.0561H502.372L511.972 36.2481V0.664062H535.908V95.0001H511.972V86.9361L502.244 95.0001H478.308ZM490.468 81.3041H500.58L511.972 71.4481V51.6081L500.708 41.7521H490.468L487.396 45.2081V78.1041L490.468 81.3041Z" fill="black"/>
<path d="M402.333 95.0001L388.125 80.7921V42.3921L402.333 28.1841H444.061L458.269 42.3921V80.7921L444.061 95.0001H402.333ZM416.541 81.6881H429.853L434.333 77.0801V45.9761L429.853 41.4961H416.541L412.061 45.9761V77.0801L416.541 81.6881Z" fill="black"/>
<path d="M330.608 95.0001L316.4 80.7921V42.3921L330.608 28.1841H369.52L382.96 40.4721V53.5281H359.024V45.9761L354.544 41.4961H344.816L340.336 45.9761V73.6241L344.816 78.1041H381.552V95.0001H330.608Z" fill="black"/>
</svg>
